# xmcd CD database file
#
# Track frame offsets:
#	200
#	20838
#	42300
#	63500
#	85625
#	99313
#	124638
#	140425
#	156688
#	182250
#	199738
#	217138
#	237263
#	252650
#	280163
#	302450
#
# Disc length: 4219 seconds
#
# Revision: 3
# Processed by: cddbd v1.4PL0 Copyright (c) Steve Scherf et al.
# Submitted via: CDex 1.51
#
DISCID=e5107910
DTITLE=Acoustic Alchemy - Reference Point+The New Edge
DYEAR=1900
DGENRE=Jazz
TTITLE0=Reference point
TTITLE1=Missing yuour touch
TTITLE2=Take five
TTITLE3=Same road, same reason
TTITLE4=Caravan of dreams
TTITLE5=Homecoming
TTITLE6=Cuban heels
TTITLE7=Lullaby for the first born
TTITLE8=Oceans apart
TTITLE9=The Notting hill two-stp
TTITLE10=Cool as a rule
TTITLE11=Santa cafe
TTITLE12=Arc en ciel
TTITLE13=London skyline
TTITLE14=Until always
TTITLE15=Rive gauche
EXTD=
EXTT0=
EXTT1=
EXTT2=
EXTT3=
EXTT4=
EXTT5=
EXTT6=
EXTT7=
EXTT8=
EXTT9=
EXTT10=
EXTT11=
EXTT12=
EXTT13=
EXTT14=
EXTT15=
PLAYORDER=
